# xmcd
#
# Track frame offsets:
#	150
#	32680
#	54430
#	75775
#	100930
#	124118
#	145005
#	167588
#	189168
#	207443
#
# Disc length: 3059 seconds
#
# Revision: 2
# Processed by: cddbd v1.5.2PL0 Copyright (c) Steve Scherf et al.
# Submitted via: EZCDAudioConverter 8.0.2.1
#
DISCID=750bf10a
DTITLE=Thanh Tuyền - Em Còn Nhớ Mùa Xuân
DYEAR=1998
DGENRE=Miscellaneous
TTITLE0=Quê hương
TTITLE1=Chiều hạ vàng
TTITLE2=Sương lạnh chiều đông
TTITLE3=Ngẫu hứng lý qua cầu
TTITLE4=Chiều ni ngoài nớ
TTITLE5=Tình yêu trên dòng sông Quan Họ
TTITLE6=Anh đi về đâu
TTITLE7=Ở hai đầu nõi nhớ
TTITLE8=Em chờ anh trở lại
TTITLE9=Em Còn Nhớ Mùa Xuân
EXTD=
EXTT0=
EXTT1=
EXTT2=
EXTT3=
EXTT4=
EXTT5=
EXTT6=
EXTT7=
EXTT8=
EXTT9=
PLAYORDER=
